<svg width="122" height="100" viewBox="0 0 122 100" fill="none" xmlns="http://www.w3.org/2000/svg" xmlns:xlink="http://www.w3.org/1999/xlink">
<path d="M10.617,45.001L116.696,45.001C118.103,45.001 119.452,45.527 120.447,46.465C121.441,47.402 122,48.674 122,50C122,51.326 121.441,52.598 120.447,53.535C119.452,54.473 118.103,54.999 116.696,54.999L10.617,54.999C9.211,54.999 7.862,54.473 6.867,53.535C5.872,52.598 5.313,51.326 5.313,50C5.313,48.674 5.872,47.402 6.867,46.465C7.862,45.527 9.211,45.001 10.617,45.001Z" fill="#1A2A3A"/>
<path d="M12.813,50L56.804,91.455C57.8,92.394 58.359,93.667 58.359,94.994C58.359,96.322 57.8,97.595 56.804,98.534C55.808,99.473 54.457,100 53.049,100C51.64,100 50.29,99.473 49.294,98.534L1.558,53.54C1.064,53.075 0.672,52.523 0.405,51.916C0.138,51.309 0,50.658 0,50C0,49.342 0.138,48.691 0.405,48.084C0.672,47.477 1.064,46.925 1.558,46.46L49.294,1.466C50.29,0.527 51.64,0 53.049,0C54.457,0 55.808,0.527 56.804,1.466C57.8,2.405 58.359,3.678 58.359,5.006C58.359,6.333 57.8,7.606 56.804,8.545L12.813,50Z" fill="#1A2A3A"/>
</svg>
