<svg width="76" height="72" viewBox="0 0 76 72" fill="none" xmlns="http://www.w3.org/2000/svg" xmlns:xlink="http://www.w3.org/1999/xlink">
<g opacity="0.16">
<path d="M2,61C2,56.58 3.896,52.34 7.272,49.215C10.648,46.089 15.226,44.333 20,44.333L56,44.333C60.774,44.333 65.352,46.089 68.728,49.215C72.104,52.34 74,56.58 74,61C74,63.21 73.052,65.33 71.364,66.892C69.676,68.455 67.387,69.333 65,69.333L11,69.333C8.613,69.333 6.324,68.455 4.636,66.892C2.948,65.33 2,63.21 2,61Z" fill="#000000"/>
</g>
<path d="M2,61L0,61L2,61ZM20,44.333L20,42.333L20,44.333ZM56,44.333L56,42.333L56,44.333ZM4,61C4,57.162 5.645,53.447 8.631,50.682L5.913,47.747C2.148,51.234 0,55.997 0,61L4,61ZM8.631,50.682C11.622,47.913 15.709,46.333 20,46.333L20,42.333C14.743,42.333 9.674,44.265 5.913,47.747L8.631,50.682ZM20,46.333L56,46.333L56,42.333L20,42.333L20,46.333ZM56,46.333C60.291,46.333 64.378,47.913 67.369,50.682L70.087,47.747C66.326,44.265 61.257,42.333 56,42.333L56,46.333ZM67.369,50.682C70.355,53.447 72,57.162 72,61L76,61C76,55.997 73.852,51.234 70.087,47.747L67.369,50.682ZM72,61C72,62.628 71.303,64.223 70.005,65.425L72.723,68.36C74.801,66.436 76,63.792 76,61L72,61ZM70.005,65.425C68.702,66.631 66.904,67.333 65,67.333L65,71.333C67.87,71.333 70.65,70.279 72.723,68.36L70.005,65.425ZM65,67.333L11,67.333L11,71.333L65,71.333L65,67.333ZM11,67.333C9.096,67.333 7.298,66.631 5.995,65.425L3.277,68.36C5.35,70.279 8.13,71.333 11,71.333L11,67.333ZM5.995,65.425C4.697,64.223 4,62.628 4,61L0,61C0,63.792 1.199,66.436 3.277,68.36L5.995,65.425Z" fill="#000000"/>
<path d="M49.5,15.167C49.5,20.823 44.499,25.667 38,25.667L38,29.667C46.413,29.667 53.5,23.317 53.5,15.167L49.5,15.167ZM38,25.667C31.501,25.667 26.5,20.823 26.5,15.167L22.5,15.167C22.5,23.317 29.587,29.667 38,29.667L38,25.667ZM26.5,15.167C26.5,9.51 31.501,4.667 38,4.667L38,0.667C29.587,0.667 22.5,7.016 22.5,15.167L26.5,15.167ZM38,4.667C44.499,4.667 49.5,9.51 49.5,15.167L53.5,15.167C53.5,7.016 46.413,0.667 38,0.667L38,4.667Z" fill="#000000"/>
</svg>
