<svg width="108" height="108" viewBox="0 0 108 108" fill="none" xmlns="http://www.w3.org/2000/svg" xmlns:xlink="http://www.w3.org/1999/xlink">
<path d="M54,108C83.824,108 108,83.824 108,54L100,54C100,79.406 79.406,100 54,100L54,108ZM108,54C108,24.176 83.824,0 54,0L54,8C79.406,8 100,28.594 100,54L108,54ZM54,0C24.176,0 0,24.176 0,54L8,54C8,28.594 28.594,8 54,8L54,0ZM0,54C0,83.824 24.176,108 54,108L54,100C28.594,100 8,79.406 8,54L0,54Z" fill="#000000"/>
<circle cx="29" cy="54" r="7.5" fill="#000000"/>
<circle cx="54" cy="54" r="7.5" fill="#000000"/>
<circle cx="79" cy="54" r="7.5" fill="#000000"/>
</svg>
