<svg width="270" height="136" viewBox="0 0 270 136" fill="none" xmlns="http://www.w3.org/2000/svg" xmlns:xlink="http://www.w3.org/1999/xlink">
<path d="M269.144,23C269.624,24.16 269.018,25.44 268.004,26.44L235.664,58.52C234.464,59.76 231.944,60.44 229.838,60.44C229.238,60.44 227.558,60.36 226.904,60.24L200.984,56L200.984,132C200.984,134.32 198.523,136 194.983,136L68.983,136C65.443,136 62.983,134.32 62.983,132L62.983,56L39.703,60.28C37.003,60.84 34.663,60.12 33.163,58.56L1.063,26.56C0.043,25.52 -0.257,24.36 0.223,23.2C0.643,22 1.903,21.2 3.523,20.64L68.983,0L98.983,0C102.523,0 104.983,1.64 104.983,4C104.983,12.24 122.323,18.08 134.683,18.08C147.043,18.08 164.983,12.28 164.983,4C164.983,1.68 167.443,0 170.983,0L200.984,0L265.784,20.24C267.464,20.8 268.664,21.8 269.144,23Z" fill="#1A2A3A"/>
</svg>
