<svg width="300" height="188" viewBox="0 0 300 188" fill="none" xmlns="http://www.w3.org/2000/svg" xmlns:xlink="http://www.w3.org/1999/xlink">
<path d="M262.5,175.5L262.5,38L206.25,38L206.25,0.5L37.5,0.5L37.5,175.5L0,175.5L0,188L131.25,188L131.25,150.5L168.75,150.5L168.75,188L300,188L300,175.5L262.5,175.5ZM112.5,125.5L75,125.5L75,100.5L112.5,100.5L112.5,125.5ZM112.5,88L75,88L75,63L112.5,63L112.5,88ZM112.5,50.5L75,50.5L75,25.5L112.5,25.5L112.5,50.5ZM168.75,125.5L131.25,125.5L131.25,100.5L168.75,100.5L168.75,125.5ZM168.75,88L131.25,88L131.25,63L168.75,63L168.75,88ZM168.75,50.5L131.25,50.5L131.25,25.5L168.75,25.5L168.75,50.5ZM243.75,125.5L206.25,125.5L206.25,100.5L243.75,100.5L243.75,125.5ZM243.75,88L206.25,88L206.25,63L243.75,63L243.75,88Z" fill="#1A2A3A"/>
</svg>
