<svg width="276" height="184" viewBox="0 0 276 184" fill="none" xmlns="http://www.w3.org/2000/svg" xmlns:xlink="http://www.w3.org/1999/xlink">
<path d="M213.75,183.667L234.5,183.667C245,183.667 253.624,178.25 254.876,171.417L275.5,34.083L213,34.083L213,0.333L188.375,0.333L188.375,34.083L126.25,34.083L130,53.583C151.375,57.5 171.375,64.583 183.375,72.417C201.376,84.25 213.75,96.5 213.75,116.5L213.75,183.667ZM0.5,175.333L0.5,167L188.375,167L188.375,175.333C188.375,179.833 182.75,183.667 175.5,183.667L13,183.667C6.125,183.667 0.5,179.833 0.5,175.333ZM188.375,117C188.375,50.333 0.5,50.333 0.5,117L188.375,117ZM0.5,133.667L188,133.667L188,150.333L0.5,150.333L0.5,133.667Z" fill="#1A2A3A"/>
</svg>
