<svg width="300" height="200" viewBox="0 0 300 200" fill="none" xmlns="http://www.w3.org/2000/svg" xmlns:xlink="http://www.w3.org/1999/xlink">
<path d="M112.162,200L73.454,151.203L0,125.11L20.058,111.791L83.992,119.05L140.48,81.333L1.537,41.736L27.244,24.671L196.246,44.024L254.032,5.206C259.218,1.735 265.576,0 273.108,0C280.64,0 286.998,1.735 292.184,5.206C297.394,8.677 300,12.915 300,17.919C300,22.923 297.4,27.16 292.202,30.631L233.954,69.276L262.958,182.057L237.14,199.295L178.078,106.523L121.589,144.24L132.202,186.62L112.162,200Z" fill="#1A2A3A"/>
</svg>
