<svg width="230" height="174" viewBox="0 0 230 174" fill="none" xmlns="http://www.w3.org/2000/svg" xmlns:xlink="http://www.w3.org/1999/xlink">
<path d="M213.838,39.075L98.882,63.975C97.533,64.556 95.984,64.896 94.382,64.962L54.894,73.5L219.126,73.5C221.612,73.5 223.996,74.158 225.754,75.331C227.512,76.503 228.5,78.092 228.5,79.75L228.5,142.25C228.5,150.538 223.562,158.487 214.77,164.347C205.98,170.208 194.057,173.5 181.625,173.5L50.375,173.5C37.943,173.5 26.021,170.208 17.23,164.347C8.439,158.487 3.5,150.538 3.5,142.25L3.5,79.75C3.5,78.425 4.119,77.187 5.188,76.162L1.532,68.637C-2.309,60.756 -1.296,52.179 4.347,44.795C9.991,37.411 19.803,31.824 31.625,29.262L156.444,2.225C168.267,-0.335 181.131,0.34 192.207,4.102C203.284,7.864 211.664,14.406 215.506,22.287L219.856,31.2C220.624,32.776 220.422,34.492 219.294,35.968C218.164,37.445 216.202,38.563 213.838,39.075ZM143.638,41.137L167.732,13.313C165.865,13.456 164.024,13.724 162.238,14.113L138.894,19.163L114.369,47.475L143.638,41.137ZM186.669,16.4L186.294,16.863L170.282,35.362L199.119,29.112L197.675,26.15C195.74,22.173 191.866,18.741 186.669,16.4ZM112.232,24.937L82.982,31.275L58.438,59.587L87.688,53.25L112.232,24.937ZM20.807,67.75L31.813,65.375L56.319,37.05L37.419,41.15C30.326,42.687 24.438,46.039 21.052,50.47C17.666,54.9 17.059,60.046 19.363,64.775L20.807,67.75Z" fill="#1A2A3A"/>
</svg>
