<svg width="94" height="54" viewBox="0 0 94 54" fill="none" xmlns="http://www.w3.org/2000/svg" xmlns:xlink="http://www.w3.org/1999/xlink">
<path d="M88.187,8.813L3.813,8.813C2.569,8.813 1.377,8.319 0.498,7.44C-0.381,6.56 -0.875,5.368 -0.875,4.125C-0.875,2.882 -0.381,1.69 0.498,0.81C1.377,-0.069 2.569,-0.563 3.813,-0.563L88.187,-0.563C89.431,-0.563 90.623,-0.069 91.502,0.81C92.381,1.69 92.875,2.882 92.875,4.125C92.875,5.368 92.381,6.56 91.502,7.44C90.623,8.319 89.431,8.813 88.187,8.813ZM72.563,30.688L19.437,30.688C18.194,30.688 17.002,30.194 16.123,29.314C15.244,28.436 14.75,27.243 14.75,26C14.75,24.757 15.244,23.564 16.123,22.686C17.002,21.806 18.194,21.313 19.437,21.313L72.563,21.313C73.806,21.313 74.998,21.806 75.877,22.686C76.756,23.564 77.25,24.757 77.25,26C77.25,27.243 76.756,28.436 75.877,29.314C74.998,30.194 73.806,30.688 72.563,30.688ZM53.813,52.563L38.187,52.563C36.944,52.563 35.752,52.069 34.873,51.189C33.994,50.311 33.5,49.118 33.5,47.875C33.5,46.632 33.994,45.439 34.873,44.561C35.752,43.681 36.944,43.188 38.187,43.188L53.813,43.188C55.056,43.188 56.248,43.681 57.127,44.561C58.006,45.439 58.5,46.632 58.5,47.875C58.5,49.118 58.006,50.311 57.127,51.189C56.248,52.069 55.056,52.563 53.813,52.563Z" fill="#1A2A3A"/>
</svg>
